<mxfile host="app.diagrams.net" modified="2020-06-03T10:07:15.368Z" agent="5.0 (Macintosh; Intel Mac OS X 10_15_3) AppleWebKit/537.36 (KHTML, like Gecko) Chrome/83.0.4103.61 Safari/537.36" etag="cHIkuWRmEihIY0x_kNd_" version="13.1.14" type="github">
  <diagram id="kCpKwJVJHfybIE9ixX9i" name="Page-1">
    <mxGraphModel dx="1186" dy="686" grid="1" gridSize="10" guides="1" tooltips="1" connect="1" arrows="1" fold="1" page="1" pageScale="1" pageWidth="827" pageHeight="1169" math="0" shadow="0">
      <root>
        <mxCell id="0" />
        <mxCell id="1" parent="0" />
        <mxCell id="SZwGPWXOhueTDgwkdfKL-69" value="" style="rounded=0;whiteSpace=wrap;html=1;dashed=1;" parent="1" vertex="1">
          <mxGeometry x="660" y="524" width="250" height="104.5" as="geometry" />
        </mxCell>
        <mxCell id="SZwGPWXOhueTDgwkdfKL-43" value="" style="rounded=0;whiteSpace=wrap;html=1;dashed=1;" parent="1" vertex="1">
          <mxGeometry x="371" y="782.42" width="218" height="91" as="geometry" />
        </mxCell>
        <mxCell id="SZwGPWXOhueTDgwkdfKL-52" value="" style="rounded=0;whiteSpace=wrap;html=1;dashed=1;" parent="1" vertex="1">
          <mxGeometry x="100.06" y="779.29" width="217.75" height="93" as="geometry" />
        </mxCell>
        <mxCell id="SZwGPWXOhueTDgwkdfKL-1" value="" style="rounded=0;whiteSpace=wrap;html=1;fillColor=none;labelPosition=center;verticalLabelPosition=middle;align=center;verticalAlign=middle;dashed=1;" parent="1" vertex="1">
          <mxGeometry x="189.25" y="500" width="390" height="225.5" as="geometry" />
        </mxCell>
        <mxCell id="SZwGPWXOhueTDgwkdfKL-9" value="数据接入节点DS2" style="rounded=0;whiteSpace=wrap;html=1;" parent="1" vertex="1">
          <mxGeometry x="469.75" y="793.92" width="108" height="35" as="geometry" />
        </mxCell>
        <mxCell id="SZwGPWXOhueTDgwkdfKL-11" value="任务调度服务" style="rounded=0;whiteSpace=wrap;html=1;" parent="1" vertex="1">
          <mxGeometry x="338.75" y="390" width="91" height="30" as="geometry" />
        </mxCell>
        <mxCell id="SZwGPWXOhueTDgwkdfKL-14" value="" style="endArrow=classic;html=1;entryX=0.5;entryY=0;entryDx=0;entryDy=0;exitX=0.5;exitY=1;exitDx=0;exitDy=0;" parent="1" source="SZwGPWXOhueTDgwkdfKL-11" target="SZwGPWXOhueTDgwkdfKL-1" edge="1">
          <mxGeometry width="50" height="50" relative="1" as="geometry">
            <mxPoint x="290" y="455" as="sourcePoint" />
            <mxPoint x="340" y="405" as="targetPoint" />
          </mxGeometry>
        </mxCell>
        <mxCell id="eiTHEiBmJHi0xDywlC6Z-11" value="2. 任务配置" style="edgeLabel;html=1;align=center;verticalAlign=middle;resizable=0;points=[];" parent="SZwGPWXOhueTDgwkdfKL-14" vertex="1" connectable="0">
          <mxGeometry x="-0.1495" y="-1" relative="1" as="geometry">
            <mxPoint as="offset" />
          </mxGeometry>
        </mxCell>
        <mxCell id="SZwGPWXOhueTDgwkdfKL-22" value="存证模块" style="rounded=0;whiteSpace=wrap;html=1;fillColor=none;" parent="1" vertex="1">
          <mxGeometry x="501" y="837.67" width="76.75" height="30" as="geometry" />
        </mxCell>
        <mxCell id="SZwGPWXOhueTDgwkdfKL-23" value="计算节点S1" style="rounded=0;whiteSpace=wrap;html=1;fillColor=none;" parent="1" vertex="1">
          <mxGeometry x="225" y="531" width="90" height="35" as="geometry" />
        </mxCell>
        <mxCell id="SZwGPWXOhueTDgwkdfKL-24" value="" style="endArrow=classic;html=1;exitX=0.25;exitY=0;exitDx=0;exitDy=0;entryX=0.25;entryY=1;entryDx=0;entryDy=0;" parent="1" source="SZwGPWXOhueTDgwkdfKL-26" target="SZwGPWXOhueTDgwkdfKL-23" edge="1">
          <mxGeometry width="50" height="50" relative="1" as="geometry">
            <mxPoint x="289.25" y="625.5" as="sourcePoint" />
            <mxPoint x="489.25" y="610.5" as="targetPoint" />
          </mxGeometry>
        </mxCell>
        <mxCell id="SZwGPWXOhueTDgwkdfKL-26" value="计算节点S2" style="rounded=0;whiteSpace=wrap;html=1;fillColor=none;" parent="1" vertex="1">
          <mxGeometry x="225" y="652.5" width="90" height="35" as="geometry" />
        </mxCell>
        <mxCell id="SZwGPWXOhueTDgwkdfKL-29" value="计算节点SB" style="rounded=0;whiteSpace=wrap;html=1;fillColor=none;" parent="1" vertex="1">
          <mxGeometry x="464.5" y="651.5" width="90" height="35" as="geometry" />
        </mxCell>
        <mxCell id="SZwGPWXOhueTDgwkdfKL-30" value="计算节点SA" style="rounded=0;whiteSpace=wrap;html=1;fillColor=none;" parent="1" vertex="1">
          <mxGeometry x="456" y="531" width="90" height="35" as="geometry" />
        </mxCell>
        <mxCell id="SZwGPWXOhueTDgwkdfKL-31" value="" style="endArrow=classic;html=1;exitX=0.75;exitY=1;exitDx=0;exitDy=0;entryX=0.75;entryY=0;entryDx=0;entryDy=0;" parent="1" source="SZwGPWXOhueTDgwkdfKL-23" target="SZwGPWXOhueTDgwkdfKL-26" edge="1">
          <mxGeometry width="50" height="50" relative="1" as="geometry">
            <mxPoint x="301.75" y="650.5" as="sourcePoint" />
            <mxPoint x="301.75" y="603" as="targetPoint" />
          </mxGeometry>
        </mxCell>
        <mxCell id="SZwGPWXOhueTDgwkdfKL-32" value="" style="endArrow=classic;html=1;exitX=1;exitY=0.5;exitDx=0;exitDy=0;entryX=0;entryY=0.5;entryDx=0;entryDy=0;" parent="1" source="SZwGPWXOhueTDgwkdfKL-23" target="SZwGPWXOhueTDgwkdfKL-30" edge="1">
          <mxGeometry width="50" height="50" relative="1" as="geometry">
            <mxPoint x="346.75" y="603" as="sourcePoint" />
            <mxPoint x="346.75" y="650.5" as="targetPoint" />
          </mxGeometry>
        </mxCell>
        <mxCell id="SZwGPWXOhueTDgwkdfKL-33" value="" style="endArrow=classic;html=1;exitX=1;exitY=0.5;exitDx=0;exitDy=0;entryX=0;entryY=0.5;entryDx=0;entryDy=0;" parent="1" source="SZwGPWXOhueTDgwkdfKL-26" target="SZwGPWXOhueTDgwkdfKL-29" edge="1">
          <mxGeometry width="50" height="50" relative="1" as="geometry">
            <mxPoint x="346.75" y="603" as="sourcePoint" />
            <mxPoint x="346.75" y="650.5" as="targetPoint" />
          </mxGeometry>
        </mxCell>
        <mxCell id="SZwGPWXOhueTDgwkdfKL-34" value="" style="endArrow=classic;html=1;exitX=1;exitY=0.5;exitDx=0;exitDy=0;entryX=0;entryY=0.75;entryDx=0;entryDy=0;" parent="1" source="SZwGPWXOhueTDgwkdfKL-26" target="SZwGPWXOhueTDgwkdfKL-30" edge="1">
          <mxGeometry width="50" height="50" relative="1" as="geometry">
            <mxPoint x="346.75" y="603" as="sourcePoint" />
            <mxPoint x="346.75" y="650.5" as="targetPoint" />
          </mxGeometry>
        </mxCell>
        <mxCell id="SZwGPWXOhueTDgwkdfKL-35" value="" style="endArrow=classic;html=1;exitX=1;exitY=0.5;exitDx=0;exitDy=0;entryX=0;entryY=0.5;entryDx=0;entryDy=0;" parent="1" source="SZwGPWXOhueTDgwkdfKL-23" target="SZwGPWXOhueTDgwkdfKL-29" edge="1">
          <mxGeometry width="50" height="50" relative="1" as="geometry">
            <mxPoint x="359.25" y="668" as="sourcePoint" />
            <mxPoint x="439.25" y="594.25" as="targetPoint" />
          </mxGeometry>
        </mxCell>
        <mxCell id="SZwGPWXOhueTDgwkdfKL-81" value="中间因子" style="text;html=1;align=center;verticalAlign=middle;resizable=0;points=[];labelBackgroundColor=#ffffff;" parent="SZwGPWXOhueTDgwkdfKL-35" vertex="1" connectable="0">
          <mxGeometry x="-0.1281" y="-1" relative="1" as="geometry">
            <mxPoint as="offset" />
          </mxGeometry>
        </mxCell>
        <mxCell id="SZwGPWXOhueTDgwkdfKL-36" value="某可信第三方" style="text;html=1;strokeColor=none;fillColor=none;align=center;verticalAlign=middle;whiteSpace=wrap;rounded=0;" parent="1" vertex="1">
          <mxGeometry x="447.12" y="690.5" width="124.75" height="20" as="geometry" />
        </mxCell>
        <mxCell id="SZwGPWXOhueTDgwkdfKL-37" value="某互联网机构" style="text;html=1;strokeColor=none;fillColor=none;align=center;verticalAlign=middle;whiteSpace=wrap;rounded=0;" parent="1" vertex="1">
          <mxGeometry x="438.62" y="510" width="133.25" height="20" as="geometry" />
        </mxCell>
        <mxCell id="SZwGPWXOhueTDgwkdfKL-38" value="某银行" style="text;html=1;strokeColor=none;fillColor=none;align=center;verticalAlign=middle;whiteSpace=wrap;rounded=0;" parent="1" vertex="1">
          <mxGeometry x="225" y="510" width="94.25" height="20" as="geometry" />
        </mxCell>
        <mxCell id="SZwGPWXOhueTDgwkdfKL-41" value="某商业机构" style="text;html=1;strokeColor=none;fillColor=none;align=center;verticalAlign=middle;whiteSpace=wrap;rounded=0;" parent="1" vertex="1">
          <mxGeometry x="229.25" y="690.5" width="110.75" height="20" as="geometry" />
        </mxCell>
        <mxCell id="SZwGPWXOhueTDgwkdfKL-42" value="" style="shape=datastore;whiteSpace=wrap;html=1;" parent="1" vertex="1">
          <mxGeometry x="382" y="788.92" width="42" height="45" as="geometry" />
        </mxCell>
        <mxCell id="SZwGPWXOhueTDgwkdfKL-44" value="" style="endArrow=classic;html=1;entryX=0;entryY=0.5;entryDx=0;entryDy=0;" parent="1" source="SZwGPWXOhueTDgwkdfKL-42" target="SZwGPWXOhueTDgwkdfKL-9" edge="1">
          <mxGeometry width="50" height="50" relative="1" as="geometry">
            <mxPoint x="403.5" y="771.42" as="sourcePoint" />
            <mxPoint x="453.5" y="721.42" as="targetPoint" />
          </mxGeometry>
        </mxCell>
        <mxCell id="SZwGPWXOhueTDgwkdfKL-75" value="明文" style="text;html=1;align=center;verticalAlign=middle;resizable=0;points=[];labelBackgroundColor=#ffffff;" parent="SZwGPWXOhueTDgwkdfKL-44" vertex="1" connectable="0">
          <mxGeometry x="-0.1422" y="-1" relative="1" as="geometry">
            <mxPoint as="offset" />
          </mxGeometry>
        </mxCell>
        <mxCell id="SZwGPWXOhueTDgwkdfKL-53" value="数据接入节点DS1" style="rounded=0;whiteSpace=wrap;html=1;" parent="1" vertex="1">
          <mxGeometry x="201.56" y="792.79" width="102.5" height="35" as="geometry" />
        </mxCell>
        <mxCell id="SZwGPWXOhueTDgwkdfKL-54" value="存证模块" style="rounded=0;whiteSpace=wrap;html=1;fillColor=none;" parent="1" vertex="1">
          <mxGeometry x="224.31" y="836.54" width="78.5" height="30" as="geometry" />
        </mxCell>
        <mxCell id="SZwGPWXOhueTDgwkdfKL-55" value="" style="shape=datastore;whiteSpace=wrap;html=1;" parent="1" vertex="1">
          <mxGeometry x="110.19" y="790.29" width="39.75" height="40" as="geometry" />
        </mxCell>
        <mxCell id="SZwGPWXOhueTDgwkdfKL-56" value="明文" style="endArrow=classic;html=1;exitX=1;exitY=0.5;exitDx=0;exitDy=0;entryX=0;entryY=0.5;entryDx=0;entryDy=0;" parent="1" source="SZwGPWXOhueTDgwkdfKL-55" target="SZwGPWXOhueTDgwkdfKL-53" edge="1">
          <mxGeometry width="50" height="50" relative="1" as="geometry">
            <mxPoint x="132.56" y="762.29" as="sourcePoint" />
            <mxPoint x="182.56" y="712.29" as="targetPoint" />
          </mxGeometry>
        </mxCell>
        <mxCell id="SZwGPWXOhueTDgwkdfKL-57" value="某互联网机构" style="text;html=1;strokeColor=none;fillColor=none;align=center;verticalAlign=middle;whiteSpace=wrap;rounded=0;" parent="1" vertex="1">
          <mxGeometry x="100.06" y="759.29" width="78.94" height="20" as="geometry" />
        </mxCell>
        <mxCell id="SZwGPWXOhueTDgwkdfKL-70" value="数据输出节点" style="rounded=0;whiteSpace=wrap;html=1;" parent="1" vertex="1">
          <mxGeometry x="680.0000000000001" y="539" width="107.5" height="35" as="geometry" />
        </mxCell>
        <mxCell id="SZwGPWXOhueTDgwkdfKL-71" value="存证模块" style="rounded=0;whiteSpace=wrap;html=1;fillColor=none;" parent="1" vertex="1">
          <mxGeometry x="680" y="589" width="85.78" height="30" as="geometry" />
        </mxCell>
        <mxCell id="SZwGPWXOhueTDgwkdfKL-72" value="" style="shape=datastore;whiteSpace=wrap;html=1;" parent="1" vertex="1">
          <mxGeometry x="850" y="535.25" width="42" height="42.5" as="geometry" />
        </mxCell>
        <mxCell id="SZwGPWXOhueTDgwkdfKL-73" value="" style="endArrow=classic;html=1;exitX=1;exitY=0.5;exitDx=0;exitDy=0;" parent="1" source="SZwGPWXOhueTDgwkdfKL-70" target="SZwGPWXOhueTDgwkdfKL-72" edge="1">
          <mxGeometry width="50" height="50" relative="1" as="geometry">
            <mxPoint x="732.5000000000001" y="584" as="sourcePoint" />
            <mxPoint x="782.5000000000001" y="534" as="targetPoint" />
          </mxGeometry>
        </mxCell>
        <mxCell id="SZwGPWXOhueTDgwkdfKL-76" value="明文" style="text;html=1;align=center;verticalAlign=middle;resizable=0;points=[];labelBackgroundColor=#ffffff;" parent="SZwGPWXOhueTDgwkdfKL-73" vertex="1" connectable="0">
          <mxGeometry x="-0.0569" relative="1" as="geometry">
            <mxPoint as="offset" />
          </mxGeometry>
        </mxCell>
        <mxCell id="SZwGPWXOhueTDgwkdfKL-74" value="某银行" style="text;html=1;strokeColor=none;fillColor=none;align=center;verticalAlign=middle;whiteSpace=wrap;rounded=0;" parent="1" vertex="1">
          <mxGeometry x="660.0000000000001" y="492.25" width="94.5" height="20" as="geometry" />
        </mxCell>
        <mxCell id="WDAiJp-4TPZIHqZEOYhD-1" value="分布式存储服务（存证记录）" style="rounded=0;whiteSpace=wrap;html=1;dashed=1;" parent="1" vertex="1">
          <mxGeometry x="50.00000000000001" y="960" width="880" height="40" as="geometry" />
        </mxCell>
        <mxCell id="WDAiJp-4TPZIHqZEOYhD-6" value="3&#39;.记录存证" style="endArrow=classic;html=1;exitX=0.5;exitY=1;exitDx=0;exitDy=0;entryX=0.242;entryY=-0.05;entryDx=0;entryDy=0;entryPerimeter=0;" parent="1" source="SZwGPWXOhueTDgwkdfKL-54" target="WDAiJp-4TPZIHqZEOYhD-1" edge="1">
          <mxGeometry width="50" height="50" relative="1" as="geometry">
            <mxPoint x="146" y="807.69" as="sourcePoint" />
            <mxPoint x="266" y="970" as="targetPoint" />
          </mxGeometry>
        </mxCell>
        <mxCell id="01yYLrN6eulc1W3Ah3Q7-1" value="多方安全计算引擎" style="text;html=1;strokeColor=none;fillColor=none;align=center;verticalAlign=middle;whiteSpace=wrap;rounded=0;" parent="1" vertex="1">
          <mxGeometry x="189.25" y="474.25" width="110.75" height="20" as="geometry" />
        </mxCell>
        <mxCell id="HyGqtzqtbX2Nl6VqGr-e-2" value="" style="endArrow=classic;html=1;entryX=0;entryY=0.5;entryDx=0;entryDy=0;exitX=1;exitY=0.25;exitDx=0;exitDy=0;" parent="1" source="SZwGPWXOhueTDgwkdfKL-1" target="SZwGPWXOhueTDgwkdfKL-70" edge="1">
          <mxGeometry width="50" height="50" relative="1" as="geometry">
            <mxPoint x="600" y="500" as="sourcePoint" />
            <mxPoint x="612.5" y="535" as="targetPoint" />
          </mxGeometry>
        </mxCell>
        <mxCell id="HyGqtzqtbX2Nl6VqGr-e-3" value="4.输出因子" style="text;html=1;align=center;verticalAlign=middle;resizable=0;points=[];labelBackgroundColor=#ffffff;" parent="HyGqtzqtbX2Nl6VqGr-e-2" vertex="1" connectable="0">
          <mxGeometry x="-0.056" y="3" relative="1" as="geometry">
            <mxPoint x="-4.210000000000001" y="-11.62" as="offset" />
          </mxGeometry>
        </mxCell>
        <mxCell id="SZwGPWXOhueTDgwkdfKL-45" value="某银行" style="text;html=1;strokeColor=none;fillColor=none;align=center;verticalAlign=middle;whiteSpace=wrap;rounded=0;" parent="1" vertex="1">
          <mxGeometry x="359" y="760.42" width="60" height="20" as="geometry" />
        </mxCell>
        <mxCell id="514z2jhj-mgd7bg3V13R-2" value="" style="endArrow=classic;html=1;exitX=0.25;exitY=1;exitDx=0;exitDy=0;entryX=0.743;entryY=-0.025;entryDx=0;entryDy=0;entryPerimeter=0;" parent="1" source="SZwGPWXOhueTDgwkdfKL-71" target="WDAiJp-4TPZIHqZEOYhD-1" edge="1">
          <mxGeometry width="50" height="50" relative="1" as="geometry">
            <mxPoint x="384.5" y="898.69" as="sourcePoint" />
            <mxPoint x="701" y="950" as="targetPoint" />
          </mxGeometry>
        </mxCell>
        <mxCell id="514z2jhj-mgd7bg3V13R-3" value="4&#39;. 记录存证" style="edgeLabel;html=1;align=center;verticalAlign=middle;resizable=0;points=[];" parent="514z2jhj-mgd7bg3V13R-2" vertex="1" connectable="0">
          <mxGeometry x="0.0363" relative="1" as="geometry">
            <mxPoint x="-22.02" y="-47" as="offset" />
          </mxGeometry>
        </mxCell>
        <mxCell id="BUfUKCFpLpPubceJvn2R-17" value="" style="endArrow=classic;html=1;exitX=0.75;exitY=0;exitDx=0;exitDy=0;entryX=0.192;entryY=1.016;entryDx=0;entryDy=0;entryPerimeter=0;" parent="1" source="SZwGPWXOhueTDgwkdfKL-52" target="SZwGPWXOhueTDgwkdfKL-1" edge="1">
          <mxGeometry width="50" height="50" relative="1" as="geometry">
            <mxPoint x="160" y="600" as="sourcePoint" />
            <mxPoint x="210" y="550" as="targetPoint" />
          </mxGeometry>
        </mxCell>
        <mxCell id="PdvxIYomY9WsL29uVKm9-6" value="&amp;nbsp;3.输入因子" style="edgeLabel;html=1;align=center;verticalAlign=middle;resizable=0;points=[];" parent="BUfUKCFpLpPubceJvn2R-17" vertex="1" connectable="0">
          <mxGeometry x="0.1759" y="4" relative="1" as="geometry">
            <mxPoint x="7.94" y="3.0299999999999994" as="offset" />
          </mxGeometry>
        </mxCell>
        <mxCell id="BUfUKCFpLpPubceJvn2R-19" value="" style="endArrow=classic;html=1;entryX=0.75;entryY=1;entryDx=0;entryDy=0;exitX=0.5;exitY=0;exitDx=0;exitDy=0;" parent="1" source="SZwGPWXOhueTDgwkdfKL-43" target="SZwGPWXOhueTDgwkdfKL-1" edge="1">
          <mxGeometry width="50" height="50" relative="1" as="geometry">
            <mxPoint x="485" y="780" as="sourcePoint" />
            <mxPoint x="210" y="580" as="targetPoint" />
          </mxGeometry>
        </mxCell>
        <mxCell id="PdvxIYomY9WsL29uVKm9-5" value="3.输入因子" style="edgeLabel;html=1;align=center;verticalAlign=middle;resizable=0;points=[];" parent="BUfUKCFpLpPubceJvn2R-19" vertex="1" connectable="0">
          <mxGeometry x="-0.191" y="-1" relative="1" as="geometry">
            <mxPoint x="38.4" y="-10.009999999999998" as="offset" />
          </mxGeometry>
        </mxCell>
        <mxCell id="BUfUKCFpLpPubceJvn2R-25" value="某银行风控系统" style="rounded=0;whiteSpace=wrap;html=1;" parent="1" vertex="1">
          <mxGeometry x="314.13" y="280" width="140.25" height="30" as="geometry" />
        </mxCell>
        <mxCell id="BUfUKCFpLpPubceJvn2R-27" value="" style="endArrow=classic;html=1;entryX=0.5;entryY=0;entryDx=0;entryDy=0;exitX=0.5;exitY=1;exitDx=0;exitDy=0;" parent="1" source="BUfUKCFpLpPubceJvn2R-25" target="SZwGPWXOhueTDgwkdfKL-11" edge="1">
          <mxGeometry width="50" height="50" relative="1" as="geometry">
            <mxPoint x="327.625" y="320" as="sourcePoint" />
            <mxPoint x="394.25" y="400" as="targetPoint" />
          </mxGeometry>
        </mxCell>
        <mxCell id="BUfUKCFpLpPubceJvn2R-28" value="1.风控请求" style="edgeLabel;html=1;align=center;verticalAlign=middle;resizable=0;points=[];" parent="BUfUKCFpLpPubceJvn2R-27" vertex="1" connectable="0">
          <mxGeometry x="-0.1714" y="-2" relative="1" as="geometry">
            <mxPoint as="offset" />
          </mxGeometry>
        </mxCell>
        <mxCell id="BUfUKCFpLpPubceJvn2R-31" value="" style="endArrow=classic;html=1;entryX=0.5;entryY=1;entryDx=0;entryDy=0;exitX=0.5;exitY=0;exitDx=0;exitDy=0;" parent="1" source="SZwGPWXOhueTDgwkdfKL-72" target="BUfUKCFpLpPubceJvn2R-25" edge="1">
          <mxGeometry width="50" height="50" relative="1" as="geometry">
            <mxPoint x="824.2200000000003" y="488" as="sourcePoint" />
            <mxPoint x="439.75" y="345" as="targetPoint" />
          </mxGeometry>
        </mxCell>
        <mxCell id="BUfUKCFpLpPubceJvn2R-32" value="5.计算结果" style="edgeLabel;html=1;align=center;verticalAlign=middle;resizable=0;points=[];" parent="BUfUKCFpLpPubceJvn2R-31" vertex="1" connectable="0">
          <mxGeometry x="-0.1014" y="1" relative="1" as="geometry">
            <mxPoint as="offset" />
          </mxGeometry>
        </mxCell>
        <mxCell id="PdvxIYomY9WsL29uVKm9-1" value="" style="endArrow=classic;html=1;exitX=0.5;exitY=1;exitDx=0;exitDy=0;" parent="1" source="SZwGPWXOhueTDgwkdfKL-22" edge="1">
          <mxGeometry width="50" height="50" relative="1" as="geometry">
            <mxPoint x="-56.5" y="509.25" as="sourcePoint" />
            <mxPoint x="541" y="960" as="targetPoint" />
          </mxGeometry>
        </mxCell>
        <mxCell id="PdvxIYomY9WsL29uVKm9-2" value="3&#39;. 记录存证" style="edgeLabel;html=1;align=center;verticalAlign=middle;resizable=0;points=[];" parent="PdvxIYomY9WsL29uVKm9-1" vertex="1" connectable="0">
          <mxGeometry x="0.0363" relative="1" as="geometry">
            <mxPoint x="-40.78" as="offset" />
          </mxGeometry>
        </mxCell>
      </root>
    </mxGraphModel>
  </diagram>
</mxfile>
